<?xml version="1.0" encoding="utf-8"?>
<!-- Generator: Adobe Illustrator 19.0.0, SVG Export Plug-In . SVG Version: 6.00 Build 0)  -->
<svg version="1.1" id="Layer_1" xmlns="http://www.w3.org/2000/svg" xmlns:xlink="http://www.w3.org/1999/xlink" x="0px" y="0px"
	 viewBox="-83 309.5 444 175.5" style="enable-background:new -83 309.5 444 175.5;" xml:space="preserve">
<style type="text/css">
	.st0{fill:#FFFFFF;}
</style>
<path id="XMLID_3_" class="st0" d="M-62,333.7c0,0,1.3-4.9,4.9-4.9c4.9,0,26.6,0,26.6,0s2.8-0.5,2.8,3.9c0,4.4,0,48.6,0,48.6h7.2
	l25.8-48.6c0,0,1.5-4.5,4.5-4.5s23.8,0,23.8,0s1.7,0.1,1.7,1.8v23.8l-20,35.2v4.2l17.2,17.6c0,0,2,1.7,2,7.3v51.2H3v-33.1L-17.3,416
	l-8.9-0.1c0,0-2.6-0.7-2.6,2.6s0,50.7,0,50.7h-25.6c0,0-8.4-0.4-8.4-8.4C-62.8,452-62,333.7-62,333.7"/>
<path id="XMLID_6_" class="st0" d="M46.7,469.2c0,0-2.7-0.3-2.7-2.8c0-4,0-23.8,0-23.8s0-2.4,2.4-2.4c2.9,0,148.6,0,148.6,0
	s3-0.1,3-3c0-2.9,0-5.8,0-5.8s-0.3-2.7-2.7-2.7s-59.2,0-59.2,0s-4.1-0.1-4.1-4.1s0-92.9,0-92.9s0.2-4.7,4.7-4.7s26.6,0,26.6,0
	s4.2,0.2,4.2,4.2s0,62.2,0,62.2s0.4,6.4,6.8,6.4c7.5,0,17.5,0,17.5,0s6.2-0.1,6.2-5.2c0-4.9,0-59.5,0-59.5s-0.1-9.4,6.8-9.4
	s24.9,0,24.9,0s4.9,0,4.9,4.9s0,133.3,0,133.3s-0.1,5.3-5.3,5.3S46.7,469.2,46.7,469.2z"/>
<path id="XMLID_8_" class="st0" d="M44.2,331.5c0,0-0.4-4.2,4.2-4.2c4.6,0,26.1,0,26.1,0s3.8-0.4,3.8,3.8c0,4.2,0,91.5,0,91.5
	s-0.3,6-6,6s-23.4,0-23.4,0s-4.9-0.5-4.9-4.9C44,419.3,44.2,331.5,44.2,331.5z"/>
<path id="XMLID_9_" class="st0" d="M88.5,331.6c0,0-0.4-4.2,4.2-4.2s26.1,0,26.1,0s3.8-0.4,3.8,3.8c0,4.2,0,91.5,0,91.5s-0.3,6-6,6
	s-23.4,0-23.4,0s-4.9-0.5-4.9-4.9C88.3,419.5,88.5,331.6,88.5,331.6z"/>
<path id="XMLID_13_" class="st0" d="M248,325.8c73.7,0,73.7,0,87.3,0c12.7,0,13.7,10.7,13.7,10.7c0,82.8,0,86.8,0,89.2
	c0,3.3-3.3,3.3-3.3,3.3s-94.7,0-98,0s-3.5-5.5-3.5-5.5v-93C244.1,326.1,248,325.8,248,325.8z M275.5,394.3c0,0,0.3,4.8,4.8,4.8
	s31.8,0,31.8,0s5.4-0.3,5.4-5.4c0-5,0-31.2,0-31.2s-0.2-5.7-5.7-5.7s-30.9,0-30.9,0s-5.3,0.5-5.3,5.3
	C275.6,366.9,275.5,394.3,275.5,394.3z"/>
<path id="XMLID_16_" class="st0" d="M247.8,439.6c0,0-3.6,0.2-3.6,3.6c0,3.4,0,22.4,0,22.4s0.3,3.6,3.6,3.6c3.3,0,87.8,0,87.8,0
	s13.1-2,13.1-13.1s0-12.6,0-12.6s-0.3-3.7-3.7-3.7C341.8,439.8,247.8,439.6,247.8,439.6z"/>
</svg>
