<?xml version="1.0" encoding="utf-8"?>
<!-- Generator: Adobe Illustrator 19.0.0, SVG Export Plug-In . SVG Version: 6.00 Build 0)  -->
<svg version="1.1" id="Layer_1" xmlns="http://www.w3.org/2000/svg" xmlns:xlink="http://www.w3.org/1999/xlink" x="0px" y="0px"
	 viewBox="0 0 282.8 279.6" style="enable-background:new 0 0 282.8 279.6;" xml:space="preserve">
<style type="text/css">
	.st0{fill:#FFFFFF;}
</style>
<g id="XMLID_85_">
	<path id="XMLID_90_" class="st0" d="M274.9,233.8c0,0.3,0,0.7,0,1c-0.3,7.6-0.8,15.2-0.8,22.8c0,10.8-4.1,15.2-14.7,15.2
		c-59,0-118,0-177,0c-12.7,0-25.4,0.1-37.9-0.9c-21.4-1.7-28.7-9.1-32.9-24.9c-1.3-5-0.9-10.6-1-15.9c-0.1-42.3-0.1-84.6,0-127
		c0-28,0-56,0.3-84c0.1-9.7,3.2-12.3,12.9-12.3C41,7.7,58.2,7.7,75.3,7.6c6.1,0,9.6,3.4,9.9,9.6c0.2,6,0.3,12,0.3,17.9
		c0.1,51.7,0.2,103.3,0.3,155c0,10.9,3.4,15.3,13.8,17.6c2.4,0.5,5,0.6,7.5,0.6c35.5,0.2,71,0.3,106.4,0.5c15.7,0.1,31.3,0,47,0.1
		c8.7,0.1,13.1,4.5,13.5,13.1C274.1,225.9,274.6,229.9,274.9,233.8z"/>
	<path id="XMLID_87_" class="st0" d="M274.9,233.8c-0.3-3.9-0.8-7.9-1-11.8c-0.4-8.6-4.7-13-13.5-13.1c-15.7-0.1-31.3-0.1-47-0.1
		c-35.5-0.1-71-0.3-106.4-0.5c-2.5,0-5-0.1-7.5-0.6c-10.3-2.3-13.7-6.7-13.8-17.6c-0.1-51.7-0.2-103.3-0.3-155c0-6-0.1-12-0.3-17.9
		C85,11,81.4,7.6,75.3,7.6C58.2,7.7,41,7.7,23.9,7.8C14.2,7.9,11.1,10.5,11,20.2c-0.3,28-0.3,56-0.3,84c0,42.3,0,84.6,0,127
		c0,5.3-0.4,10.9,1,15.9c4.1,15.8,11.4,23.2,32.9,24.9c12.6,1,25.3,0.9,37.9,0.9c59,0.1,118,0,177,0c10.6,0,14.7-4.5,14.7-15.2
		c0-7.6,0.5-15.2,0.8-22.8c0,13,0,26,0,39 M7.9,5.8 M180.1,135.8c-0.1-0.3-0.2-0.5-0.3-0.8c1.7-0.6,3.3-1.2,5-1.6
		c22.2-5.7,43.3-14,62.6-26.6c7.6-5,14.4-11,17.9-19.6c4.5-11.4,8-23.2,5.5-35.5c-3.5-17.4-11-32.6-28.9-38.9
		c-9.4-3.3-19.7-5.4-29.7-5.6c-34.8-0.7-69.6-0.4-104.4-0.3c-9.9,0-12,2.4-12,12.2c0,14,0.1,28,0.1,42c0,7,0.3,7.4,7.2,7.5
		c24,0.1,48,0.2,72,0.4c1.3,0,2.7,0.2,4,0.3c-1.4,1.6-2.9,2.2-4.3,2.8c-12.5,4.9-25.3,9.3-37.5,15c-10.8,5-21.1,11.2-31.5,17.2
		c-7.4,4.2-9.8,11.1-9.7,19.4c0.2,20,0.1,40,0.1,60c0,1.8,0.2,3.7,0.6,5.4c1.3,6,3,7.7,9.1,7.7c51.3,0.1,102.6,0.2,153.9,0.1
		c8.2,0,12.5-3.2,13.1-11.3c0.9-12.9,0.9-25.9,0.7-38.9c-0.1-5.6-3.8-8.9-9.5-9.8c-3.4-0.5-6.9-0.9-10.4-0.9
		C229.1,135.7,204.6,135.8,180.1,135.8z"/>
	<path id="XMLID_86_" class="st0" d="M180.1,135.8c24.5,0,48.9,0,73.4,0c3.5,0,7,0.4,10.4,0.9c5.7,0.9,9.5,4.2,9.5,9.8
		c0.2,13,0.2,26-0.7,38.9c-0.6,8.1-4.8,11.3-13.1,11.3c-51.3,0-102.6,0-153.9-0.1c-6.1,0-7.8-1.7-9.1-7.7c-0.4-1.8-0.6-3.6-0.6-5.4
		c0-20,0.1-40-0.1-60c-0.1-8.3,2.4-15.2,9.7-19.4c10.4-6,20.6-12.2,31.5-17.2c12.2-5.6,25-10,37.5-15c1.5-0.6,3-1.2,4.3-2.8
		c-1.3-0.1-2.7-0.3-4-0.3c-24-0.1-48-0.2-72-0.4c-6.9,0-7.2-0.5-7.2-7.5c0-14-0.1-28-0.1-42c0-9.9,2-12.2,12-12.2
		c34.8-0.1,69.6-0.4,104.4,0.3c9.9,0.2,20.2,2.3,29.7,5.6c17.9,6.3,25.5,21.6,28.9,38.9c2.5,12.3-0.9,24.1-5.5,35.5
		c-3.5,8.7-10.2,14.7-17.9,19.6c-19.3,12.6-40.4,20.9-62.6,26.6c-1.7,0.4-3.3,1.1-5,1.6C180,135.2,180.1,135.5,180.1,135.8z"/>
</g>
</svg>
