<?xml version="1.0" encoding="utf-8"?>
<!-- Generator: Adobe Illustrator 19.0.0, SVG Export Plug-In . SVG Version: 6.00 Build 0)  -->
<svg version="1.1" id="Layer_1" xmlns="http://www.w3.org/2000/svg" xmlns:xlink="http://www.w3.org/1999/xlink" x="0px" y="0px"
	 viewBox="0 0 393.8 465.6" style="enable-background:new 0 0 393.8 465.6;" xml:space="preserve">
<style type="text/css">
	.st0{fill:#FFFFFF;}
</style>
<g>
	<path class="st0" d="M7.7,237.9c0-72.3,0-144.6,0-216.9c126,0,252,0,377.7,0c0.7,3.5,1.2,4.9,1.2,6.4c0.1,60.4,0.3,120.8,0,181.2
		c-0.3,53.6-18.8,100.6-53.2,141.5c-35.3,42-79,72.3-129.7,92.8c-5.9,0-11.9,0-17.8,0c-1.5-4.5-6-4.6-9.4-6.2
		c-30-13.4-57.4-30.9-81.9-52.6c-42.9-38-74.5-82.7-83.2-140.9C11.1,240.6,10.9,238.2,7.7,237.9z M197.4,267.7
		c-34.1,35.3-67.2,69.6-101.3,104.8c28.4,25.1,58,45.8,92.5,59c5.3,2,10.5,2.5,15.9,0.5c35.2-13,65.2-34,94-59.6
		C264.4,337.1,231.3,302.8,197.4,267.7z M197.1,149.7c54.3,51.6,105.4,100.3,157.1,149.4c27.3-48.5,21.9-99,21.6-149.4
		C316.8,149.7,259.3,149.7,197.1,149.7z M40.7,299c52.1-49.7,103.3-98.4,156.3-149c-61.6,0-119.5,0-178.1,0
		C19.4,200.6,12.9,251,40.7,299z M155.2,101c5.2-2.4,10.6-6.7,12.6-5.5c15.8,9.8,34.4,13.2,50.2,23.1c11.8,7.4,25.1,8.6,38.5,3.6
		c10.9-4.1,17.6-12.1,16.3-23.7c-1.7-14.8-6.3-29.2-1.6-45.8c-11.6,5.5-28.1,30.5-27.5,38.7c6-1.7,12.4-5.3,17.1,2
		c3,4.7,2.3,9.7-0.6,14c-4.5,6.9-11.6,6.7-18.6,5.3c-4.9-0.9-8.7-4.4-12.8-7.1c-14.7-9.7-13-25-12.9-36.7
		c-21.1-14.8-41.2-24.7-66.9-11.8c13.6,5.3,28.1-2.5,39.9,6.6c-14.9,5.6-30.8-4.2-43.6,7.1c-4-0.9-3.3-7.5-8.3-7
		c-17,14.1-11.3,33.8-13.1,51.8c9.4,3.8,15.7-2.1,21.8-7.2c3.1,1.7,0,6.1,4.7,7.7C155.3,113.1,164.1,111.9,155.2,101z M234.1,217.9
		c0.3-20.2-15.7-36-36.7-36.2c-20.7-0.2-37.8,15.9-37.8,35.4c0,19.3,15.9,34.7,36.3,35.3C217.1,253,233.7,238,234.1,217.9z
		 M112.5,325c20.9,0.4,37-14,37.5-33.4c0.5-19.4-15.2-35-35.7-35.5c-20.3-0.5-37.1,14.5-37.8,33.7C75.9,308.5,92.3,324.6,112.5,325z
		 M279,324.9c21.2,0.4,36.9-13.5,37.5-33.2c0.6-19.7-14.6-35.1-35.2-35.7c-20.2-0.6-37.3,14.5-38,33.5
		C242.5,308.5,258.7,324.5,279,324.9z M104.4,55.7c-1.3,0.1-2.7,0.2-4,0.4c0,15.4,0,30.7,0,47.5c-16.7-3.1-30.8,2.6-45.9-0.1
		c-10.1-1.8-18.9-0.7-18.6-15.1c-15.9,8.7-2.7,17.3-3.5,25.5c24.7,0,48.3,0,72.6,0c1.6-8.4,10.4-15.4,2.3-25.3
		c-1.8-2.2-1.4-8.8,0.5-11.2C115.3,68,108.5,62.2,104.4,55.7z M355.8,102.2c-21.8,1.9-41.9,2.1-61.3,0.1c-4.1-5.2,0.8-11.6-4.6-15.9
		c-12.8,8.7-4.9,17.9-1.3,27.1c23.9,0,47.5,0,71,0c5-13,4.8-12.9,2.4-24.9c-0.7-3.7-0.5-8,0.6-11.7c3.5-11.8,3.8-11.7-6.7-21.9
		C355.8,71.4,355.8,86.4,355.8,102.2z M72.9,52.1c-3.1,8-1.4,16.5-1.5,24.8c-0.3,20.7,3,23.3,25,19.6c0-8.7,0-17.5,0-26.3
		C96.5,51.8,91.9,48.3,72.9,52.1z M351.4,97.3c0-11.8-0.4-22.6,0.1-33.3c0.5-11.2-7.4-12.8-15.2-13.7c-10.3-1.1-10.3,6.3-10,13.6
		c0.2,4.4,0,8.9,0.1,13.3C326.3,97.8,327.7,99,351.4,97.3z M296.6,96.9c22.2,2.8,25.3,0.4,25.3-19c0-4.4,0-8.9,0-13.3
		c0.1-6.9,1.3-15-9.4-14.2c-8.6,0.6-16.7,2.4-16,14.4C297.1,75.5,296.6,86.3,296.6,96.9z M67,51.6C55.1,50.3,44.1,48.1,42.3,62
		C40.9,73.4,42,85.3,42,96.7c22.3,2.7,24.9,0.6,24.9-19C67,69.4,67,61.2,67,51.6z M289.3,80.5c2.6-8.9,5-16.8,0.7-25.8
		c-3.5,5.6-6.2,9.9-8.9,14.4C284,73.2,286.7,76.8,289.3,80.5z M36.2,59.6c-11.1,9.2-11,10.9,0.4,20.6C37.5,73.2,38.1,66.6,36.2,59.6
		z"/>
</g>
</svg>
